Coordinates
version=1
nRows=32
nColumns=12
inDegrees=yes

Units are S.I. units (second, meters, Newtons, ...)
Angles are in degrees

endheader
time	SC_y	SC_z	SC_x	AC_y	AC_z	AC_x	GH_y	GH_z	GH_yy	EL_x	PS_y
       0.0              -27.55          26.68           75.3          35.46         -9.519         -8.393          86.93          33.41          -91.6          110.0          42.62
    0.0205              -27.55          26.68          75.29          35.46          -9.52         -8.393          86.93          33.41         -91.61          110.0          42.62
   0.04099              -27.56          26.67          75.28          35.47          -9.52         -8.393          86.93          33.41         -91.61          110.0          42.63
   0.06149              -27.56          26.67          75.28          35.47         -9.521         -8.393          86.92          33.41         -91.62          110.0          42.64
   0.08199              -27.56          26.67          75.27          35.47         -9.522         -8.393          86.92           33.4         -91.63          110.0          42.65
    0.1025              -27.57          26.67          75.26          35.47         -9.524         -8.393          86.91           33.4         -91.63          110.0          42.66
     0.123              -27.57          26.67          75.25          35.47         -9.525         -8.393          86.91           33.4         -91.64          110.0          42.67
    0.1435              -27.58          26.66          75.24          35.48         -9.526         -8.394          86.91          33.39         -91.65          110.0          42.69
     0.164              -27.58          26.66          75.23          35.48         -9.527         -8.394           86.9          33.39         -91.65          110.0           42.7
    0.1845              -27.59          26.66          75.22          35.48         -9.529         -8.394          86.89          33.39         -91.66          110.0          42.71
     0.205               -27.6          26.66          75.21          35.48          -9.53         -8.394          86.89          33.38         -91.67          110.0          42.73
    0.2255               -27.6          26.65           75.2          35.49         -9.532         -8.394          86.88          33.38         -91.68          110.0          42.74
     0.246              -27.61          26.65          75.19          35.49         -9.534         -8.394          86.88          33.37         -91.69          110.0          42.76
    0.2665              -27.62          26.65          75.17          35.49         -9.536         -8.394          86.87          33.37          -91.7          109.9          42.78
     0.287              -27.63          26.64          75.16           35.5         -9.538         -8.395          86.86          33.36         -91.72          109.9           42.8
    0.3075              -27.63          26.64          75.14           35.5          -9.54         -8.395          86.85          33.35         -91.73          109.9          42.82
     0.328              -27.64          26.63          75.12          35.51         -9.542         -8.395          86.84          33.35         -91.74          109.9          42.85
    0.3485              -27.66          26.63           75.1          35.51         -9.545         -8.395          86.83          33.34         -91.76          109.9          42.87
     0.369              -27.67          26.62          75.08          35.52         -9.548         -8.396          86.82          33.33         -91.78          109.9           42.9
    0.3894              -27.68          26.62          75.06          35.52         -9.551         -8.396          86.81          33.32          -91.8          109.9          42.93
    0.4099              -27.69          26.61          75.03          35.53         -9.555         -8.396          86.79          33.31         -91.82          109.8          42.97
    0.4304              -27.71           26.6          75.01          35.54         -9.559         -8.397          86.78           33.3         -91.84          109.8           43.0
    0.4509              -27.73           26.6          74.97          35.54         -9.563         -8.397          86.76          33.29         -91.87          109.8          43.05
    0.4714              -27.75          26.59          74.94          35.55         -9.568         -8.397          86.74          33.27         -91.89          109.8          43.09
    0.4919              -27.77          26.58           74.9          35.56         -9.573         -8.398          86.72          33.26         -91.93          109.8          43.14
    0.5124              -27.79          26.57          74.86          35.57         -9.579         -8.398           86.7          33.24         -91.96          109.7           43.2
    0.5329              -27.82          26.55          74.81          35.59         -9.586         -8.399          86.68          33.22          -92.0          109.7          43.26
    0.5534              -27.85          26.54          74.76           35.6         -9.593           -8.4          86.65           33.2         -92.04          109.6          43.34
    0.5739              -27.88          26.52          74.69          35.62         -9.601           -8.4          86.61          33.18         -92.09          109.6          43.42
    0.5944              -27.92          26.51          74.63          35.63         -9.611         -8.401          86.58          33.15         -92.15          109.6          43.51
    0.6149              -27.96          26.49          74.55          35.65         -9.622         -8.402          86.54          33.12         -92.22          109.5          43.62
    0.6354              -28.01          26.46          74.46          35.68         -9.634         -8.403          86.49          33.08         -92.29          109.4          43.74
